<svg width="40" height="35" viewBox="0 0 40 35" fill="none" xmlns="http://www.w3.org/2000/svg">
<path d="M19.8329 26.8805H8.98293L6.76626 33.9104C6.70793 34.1797 6.4746 34.3591 6.2121 34.3292H0.728763C0.40793 34.3292 0.32043 34.1497 0.40793 33.7908L9.79959 6.06C9.8871 5.76086 9.9746 5.43179 10.0913 5.07282C10.2079 4.44462 10.2663 3.7865 10.2663 3.12838C10.2371 2.9788 10.3538 2.82923 10.4996 2.79932H10.5871H18.0538C18.2871 2.79932 18.4038 2.88906 18.4329 3.03863L29.0788 33.8506C29.1663 34.1797 29.0788 34.3292 28.7871 34.3292H22.6913C22.4871 34.3591 22.2829 34.2096 22.2246 34.0002L19.8329 26.8805ZM10.6746 20.8079H18.0829C17.9079 20.1797 17.6746 19.4318 17.4121 18.654C17.1496 17.8463 16.8871 16.9788 16.6246 16.0814C16.3329 15.154 16.0704 14.2566 15.7788 13.3292C15.4871 12.4019 15.2246 11.5344 14.9913 10.6668C14.7579 9.82923 14.5538 9.05145 14.3496 8.3335H14.2913C14.0288 9.61983 13.7079 10.9062 13.2996 12.1925C12.8621 13.6284 12.4246 15.1241 11.9579 16.6198C11.5496 18.1455 11.1121 19.5515 10.6746 20.8079Z" fill="white"/>
<path d="M35.5833 8.03418C34.6208 8.0641 33.6875 7.67521 32.9875 6.98717C32.3167 6.23931 31.9667 5.25213 31.9958 4.23504C31.9667 3.21794 32.3458 2.26068 33.0458 1.57264C33.7458 0.884609 34.6792 0.525635 35.6417 0.525635C36.7792 0.525635 37.6542 0.884609 38.2958 1.57264C38.9375 2.29059 39.2875 3.24786 39.2583 4.23504C39.2875 5.25213 38.9375 6.23931 38.2375 6.98717C37.5667 7.70512 36.575 8.09401 35.5833 8.03418ZM32.3167 34V10.9658C32.3167 10.6667 32.4333 10.547 32.6958 10.547H38.4708C38.7333 10.547 38.85 10.6966 38.85 10.9658V34C38.85 34.3291 38.7333 34.4786 38.4708 34.4786H32.7542C32.4625 34.4786 32.3167 34.2991 32.3167 34Z" fill="white"/>
</svg>
