<svg width="43" height="34" viewBox="0 0 43 34" fill="none" xmlns="http://www.w3.org/2000/svg">
<path d="M0.75 32.0897V1.30762C0.75 1.09822 0.8375 0.978559 1.04167 0.978559C1.5375 0.978559 2.00417 0.978559 2.675 0.948645C3.375 0.91873 4.10417 0.91873 4.89167 0.888816C5.67917 0.858901 6.525 0.858901 7.42917 0.828986C8.33333 0.799072 9.20833 0.799072 10.0833 0.799072C12.475 0.799072 14.4583 1.09822 16.0917 1.72642C17.55 2.23497 18.8917 3.07258 20 4.17942C20.9333 5.13668 21.6625 6.30335 22.1292 7.58967C22.5667 8.84608 22.8 10.1324 22.8 11.4786C22.8 14.0512 22.2167 16.1751 21.05 17.8504C19.8833 19.5256 18.25 20.782 16.3542 21.4999C14.3708 22.2478 12.1833 22.517 9.79167 22.517C9.09167 22.517 8.625 22.517 8.33333 22.4871C8.04167 22.4572 7.63333 22.4572 7.07917 22.4572V32.0598C7.10833 32.2692 6.9625 32.4486 6.75833 32.4786C6.72917 32.4786 6.7 32.4786 6.64167 32.4786H1.1C0.866667 32.4786 0.75 32.3589 0.75 32.0897ZM7.10833 6.75207V16.8033C7.51667 16.8333 7.89583 16.8632 8.24583 16.8632H9.79167C10.9292 16.8632 12.0667 16.6837 13.1458 16.3247C14.0792 16.0555 14.8958 15.4871 15.5375 14.7392C16.15 13.9914 16.4417 12.9743 16.4417 11.658C16.4708 10.7307 16.2375 9.80335 15.7708 8.99566C15.275 8.21788 14.575 7.61959 13.7292 7.29053C12.65 6.84181 11.4833 6.66232 10.2875 6.69223C9.52917 6.69223 8.85833 6.69224 8.30417 6.72215C7.72083 6.69224 7.3125 6.72215 7.10833 6.75207Z" fill="white"/>
<path d="M40.9999 14.9787C40.1249 14.5001 39.1915 14.171 38.1999 13.9616C37.1207 13.7223 36.0415 13.5727 34.9332 13.5727C34.3499 13.5428 33.7374 13.6325 33.1832 13.7821C32.804 13.8719 32.4832 14.0813 32.279 14.3804C32.1332 14.6197 32.0457 14.9189 32.0457 15.1881C32.0457 15.4573 32.1624 15.7266 32.3374 15.9659C32.5999 16.2949 32.9499 16.5642 33.329 16.7736C33.9999 17.1325 34.6999 17.4616 35.3999 17.7607C36.9749 18.2992 38.4915 19.0471 39.8915 19.9445C40.854 20.5727 41.6415 21.4103 42.1957 22.4274C42.6624 23.3847 42.8957 24.4317 42.8665 25.5086C42.8957 26.9146 42.4874 28.3206 41.729 29.4872C40.9124 30.6838 39.7749 31.6112 38.4624 32.1496C37.0332 32.7778 35.2832 33.1069 33.1832 33.1069C31.8415 33.1069 30.529 32.9872 29.2165 32.718C28.1957 32.5385 27.1749 32.2095 26.2415 31.7607C26.0374 31.6411 25.8915 31.4317 25.9207 31.1924V25.9872C25.9207 25.8975 25.9499 25.7778 26.0374 25.718C26.1249 25.6582 26.2124 25.6881 26.2999 25.7479C27.4374 26.436 28.6332 26.9146 29.9165 27.2137C31.0249 27.5129 32.1915 27.6625 33.3582 27.6625C34.4665 27.6625 35.254 27.5129 35.779 27.2437C36.2457 27.0343 36.5665 26.5257 36.5665 25.9872C36.5665 25.5684 36.3332 25.1796 35.8665 24.7907C35.3999 24.4018 34.4374 23.9531 33.0082 23.3847C31.5207 22.8462 30.1499 22.1283 28.8665 21.2308C27.9624 20.5727 27.204 19.7052 26.6499 18.6881C26.1832 17.7308 25.9499 16.6838 25.979 15.6368C25.979 14.3505 26.329 13.124 26.9707 12.0172C27.6999 10.8206 28.779 9.86332 30.0332 9.26503C31.404 8.54708 33.1249 8.21802 35.1957 8.21802C36.3915 8.21802 37.6165 8.30776 38.8124 8.48725C39.6874 8.6069 40.5332 8.84622 41.3207 9.17528C41.4374 9.2052 41.554 9.32485 41.6124 9.44451C41.6415 9.56417 41.6707 9.68383 41.6707 9.80349V14.6796C41.6707 14.7992 41.6124 14.9189 41.5249 14.9787C41.2624 15.0385 41.1165 15.0385 40.9999 14.9787Z" fill="white"/>
</svg>
